<svg xmlns="http://www.w3.org/2000/svg" viewBox="0 0 1235 1160.78"><defs><style>.cls-1{fill:#020102;fill-rule:evenodd;}</style></defs><g id="Capa_2" data-name="Capa 2"><g id="New_Layer" data-name="New Layer"><path class="cls-1" d="M606.7,32c-6,18-16.1,48.9-22.7,68.7s-23.3,70.9-37.3,113.5-36.7,111.4-50.3,152.7l-24.8,75.3H235.8c-129.7,0-235.8.3-235.8.7s17,13,37.8,27.9,105.7,75.8,188.7,135.3,151.8,109.1,152.8,110c2,1.9,5.5-9.4-42,134.6-18.7,57-34.4,104.7-62.8,191-14.1,42.9-28.6,86.9-32.2,97.8s-6.3,20.1-6,20.4c.7.6-23.6,18,191.2-136.2,101.2-72.6,185.5-133.1,187.2-134.3l3.3-2.3,76.2,54.8c244.7,175.8,305.3,219.1,305.6,218.8s-4.6-15.3-10.6-33.7-21.6-65.5-34.6-104.8c-51.1-155.6-71.2-216.8-81.1-247-14.5-44-18.5-56.3-18.5-57.5,0-.6,85.5-62.3,190-137.3s190-136.8,190-137.3-90.9-1-235.7-1.1l-235.6-.3-16.4-50c-9-27.5-27.2-82.6-40.3-122.5s-38.3-116.6-56-170.5S618.5.41,618.1,0,612.6,13.91,606.7,32Z"/></g></g></svg>